<!DOCTYPE svg PUBLIC "-//W3C//DTD SVG 1.1//EN" "http://www.w3.org/Graphics/SVG/1.1/DTD/svg11.dtd">
<!-- Uploaded to: SVG Repo, www.svgrepo.com, Transformed by: SVG Repo Mixer Tools -->
<svg fill="#1c139a" height="800px" width="800px" version="1.1" id="Layer_1" xmlns="http://www.w3.org/2000/svg" xmlns:xlink="http://www.w3.org/1999/xlink" viewBox="0 0 512 512" xml:space="preserve" stroke="#1c139a">
<g id="SVGRepo_bgCarrier" stroke-width="0"/>
<g id="SVGRepo_tracerCarrier" stroke-linecap="round" stroke-linejoin="round"/>
<g id="SVGRepo_iconCarrier"> <g> <g> <path d="M384,0c-42.351,0-76.8,34.449-76.8,76.8c0,42.351,34.449,76.8,76.8,76.8s76.8-34.449,76.8-76.8 C460.8,34.449,426.351,0,384,0z M384,128c-28.279,0-51.2-22.921-51.2-51.2s22.921-51.2,51.2-51.2c28.279,0,51.2,22.921,51.2,51.2 S412.279,128,384,128z"/> </g> </g> <g> <g> <path d="M302.106,424.346c-15.215,20.369-35.226,36.907-58.522,47.718c9.719-13.773,17.903-30.626,24.209-49.664h34.159 l-2.031-25.6h-25.165c0.734-3.354,1.169-6.946,1.783-10.394c-3.132-2.355-6.101-4.958-8.67-8.03 c-9.754-11.648-13.798-26.974-11.025-41.975l16.956-93.201h-6.016c-6.298-19.038-14.49-35.891-24.209-49.664 c12.792,5.939,24.533,13.67,35.115,22.724l3.746-20.608c0.478-2.628,1.229-5.137,2.082-7.603 C254.942,166.477,218.615,153.6,179.2,153.6C80.23,153.6,0,233.83,0,332.8S80.23,512,179.2,512 c49.024,0,93.406-19.729,125.764-51.618L302.106,424.346z M114.816,193.536c-9.719,13.773-17.903,30.626-24.209,49.664H54.699 C70.084,221.884,90.752,204.706,114.816,193.536z M39.748,268.8h43.895c-3.524,16.094-5.751,33.263-6.477,51.2H26.249 C27.759,301.841,32.452,284.621,39.748,268.8z M39.748,396.8c-7.296-15.821-11.989-33.041-13.5-51.2h50.918 c0.725,17.937,2.953,35.106,6.477,51.2H39.748z M54.699,422.4h35.908c6.298,19.038,14.49,35.891,24.209,49.664 C90.752,460.894,70.084,443.716,54.699,422.4z M166.4,483.806c-18.415-7.134-36.54-29.082-48.777-61.406H166.4V483.806z M166.4,396.8h-56.627c-3.772-15.556-6.221-32.734-7.014-51.2H166.4V396.8z M166.4,320h-63.642 c0.794-18.466,3.243-35.644,7.014-51.2H166.4V320z M166.4,243.2h-48.777c12.245-32.316,30.37-54.263,48.777-61.406V243.2z M192,181.794c18.415,7.134,36.54,29.082,48.777,61.406H192V181.794z M192,268.8h56.627c3.772,15.556,6.221,32.734,7.014,51.2H192 V268.8z M192,345.6h63.642c-0.794,18.466-3.243,35.644-7.014,51.2H192V345.6z M192,483.806V422.4h48.777 C228.54,454.716,210.415,476.664,192,483.806z"/> </g> </g> <g> <g> <path d="M486.4,325.12h-3.302L460.39,200.226c-2.219-12.177-12.817-21.026-25.19-21.026H332.8 c-12.373,0-22.972,8.849-25.19,21.026l-25.6,140.8c-1.357,7.467,0.666,15.155,5.53,20.983c4.864,5.828,12.066,9.19,19.661,9.19 h16.358l9.327,117.231C333.943,501.734,345.045,512,358.4,512h51.2c13.355,0,24.465-10.266,25.515-23.569l4.241-53.231H486.4 c14.14,0,25.6-11.46,25.6-25.6v-58.88C512,336.58,500.54,325.12,486.4,325.12z M409.6,486.4h-51.2l-11.204-140.8H307.2l25.6-140.8 h38.4v77.875c0,7.074,5.726,12.8,12.8,12.8c7.074,0,12.8-5.726,12.8-12.8V204.8h38.4l21.871,120.32H404.48 c-14.14,0-25.6,11.46-25.6,25.6v58.88c0,14.14,11.46,25.6,25.6,25.6h9.19L409.6,486.4z M486.4,409.6h-81.92v-58.88h81.92V409.6z"/> </g> </g> </g>
</svg>